<!DOCTYPE svg PUBLIC "-//W3C//DTD SVG 1.1//EN" "http://www.w3.org/Graphics/SVG/1.1/DTD/svg11.dtd">
<!-- Uploaded to: SVG Repo, www.svgrepo.com, Transformed by: SVG Repo Mixer Tools -->
<svg fill="#d47230" height="800px" width="800px" version="1.1" id="Layer_1" xmlns="http://www.w3.org/2000/svg" xmlns:xlink="http://www.w3.org/1999/xlink" viewBox="0 0 512 512" xml:space="preserve" transform="rotate(270)" stroke="#d47230">
<g id="SVGRepo_bgCarrier" stroke-width="0"/>
<g id="SVGRepo_tracerCarrier" stroke-linecap="round" stroke-linejoin="round" stroke="#CCCCCC" stroke-width="3.072"> <g> <g> <path d="M403.914,0L54.044,349.871L0,512l162.128-54.044L512,108.086L403.914,0z M295.829,151.319l21.617,21.617L110.638,379.745 l-21.617-21.617L295.829,151.319z M71.532,455.932l-15.463-15.463l18.015-54.043l51.491,51.491L71.532,455.932z M153.871,422.979 l-21.617-21.617l206.809-206.809l21.617,21.617L153.871,422.979z M382.297,194.555l-64.852-64.852l21.617-21.617l64.852,64.852 L382.297,194.555z M360.679,86.468l43.234-43.235l64.853,64.853l-43.235,43.234L360.679,86.468z"/> </g> </g> </g>
<g id="SVGRepo_iconCarrier"> <g> <g> <path d="M403.914,0L54.044,349.871L0,512l162.128-54.044L512,108.086L403.914,0z M295.829,151.319l21.617,21.617L110.638,379.745 l-21.617-21.617L295.829,151.319z M71.532,455.932l-15.463-15.463l18.015-54.043l51.491,51.491L71.532,455.932z M153.871,422.979 l-21.617-21.617l206.809-206.809l21.617,21.617L153.871,422.979z M382.297,194.555l-64.852-64.852l21.617-21.617l64.852,64.852 L382.297,194.555z M360.679,86.468l43.234-43.235l64.853,64.853l-43.235,43.234L360.679,86.468z"/> </g> </g> </g>
</svg>